<svg width="48" height="48" viewBox="0 0 48 48" fill="none" xmlns="http://www.w3.org/2000/svg">
<g clip-path="url(#clip0_646_578)">
<path fill-rule="evenodd" clip-rule="evenodd" d="M24 45C29.5695 45 34.911 42.7875 38.8492 38.8492C42.7875 34.911 45 29.5695 45 24C45 18.4305 42.7875 13.089 38.8492 9.15076C34.911 5.21249 29.5695 3 24 3C18.4305 3 13.089 5.21249 9.15076 9.15076C5.21249 13.089 3 18.4305 3 24C3 29.5695 5.21249 34.911 9.15076 38.8492C13.089 42.7875 18.4305 45 24 45ZM24 48C30.3652 48 36.4697 45.4714 40.9706 40.9706C45.4714 36.4697 48 30.3652 48 24C48 17.6348 45.4714 11.5303 40.9706 7.02944C36.4697 2.52856 30.3652 0 24 0C17.6348 0 11.5303 2.52856 7.02944 7.02944C2.52856 11.5303 0 17.6348 0 24C0 30.3652 2.52856 36.4697 7.02944 40.9706C11.5303 45.4714 17.6348 48 24 48Z" fill="#B4B4B4"/>
<path fill-rule="evenodd" clip-rule="evenodd" d="M25.057 34.0624C25.1966 33.9231 25.3074 33.7576 25.3829 33.5753C25.4585 33.3931 25.4974 33.1977 25.4974 33.0004C25.4974 32.8031 25.4585 32.6078 25.3829 32.4255C25.3074 32.2433 25.1966 32.0778 25.057 31.9384L17.1195 24.0004L25.057 16.0624C25.1964 15.923 25.3069 15.7574 25.3824 15.5752C25.4578 15.393 25.4967 15.1977 25.4967 15.0004C25.4967 14.8032 25.4578 14.6079 25.3824 14.4257C25.3069 14.2435 25.1964 14.0779 25.057 13.9384C24.9176 13.799 24.7521 13.6883 24.5699 13.6129C24.3878 13.5374 24.1926 13.4985 23.9954 13.4985C23.7983 13.4985 23.6031 13.5374 23.4209 13.6129C23.2388 13.6883 23.0733 13.799 22.9339 13.9384L13.9379 22.9384C13.7983 23.0778 13.6875 23.2433 13.6119 23.4255C13.5363 23.6078 13.4974 23.8031 13.4974 24.0004C13.4974 24.1977 13.5363 24.3931 13.6119 24.5753C13.6875 24.7576 13.7983 24.9231 13.9379 25.0624L22.9339 34.0624C23.0732 34.2021 23.2386 34.3129 23.4208 34.3886C23.6029 34.4642 23.7982 34.5031 23.9954 34.5031C24.1926 34.5031 24.3879 34.4642 24.5701 34.3886C24.7522 34.3129 24.9177 34.2021 25.057 34.0624Z" fill="#B4B4B4"/>
<path fill-rule="evenodd" clip-rule="evenodd" d="M34.5 24C34.5 23.6022 34.342 23.2206 34.0607 22.9393C33.7794 22.658 33.3978 22.5 33 22.5H18C17.6022 22.5 17.2206 22.658 16.9393 22.9393C16.658 23.2206 16.5 23.6022 16.5 24C16.5 24.3978 16.658 24.7794 16.9393 25.0607C17.2206 25.342 17.6022 25.5 18 25.5H33C33.3978 25.5 33.7794 25.342 34.0607 25.0607C34.342 24.7794 34.5 24.3978 34.5 24Z" fill="#B4B4B4"/>
</g>
<defs>
<clipPath id="clip0_646_578">
<rect width="48" height="48" fill="white"/>
</clipPath>
</defs>
</svg>
