<svg width="20" height="20" viewBox="0 0 20 20" fill="none" xmlns="http://www.w3.org/2000/svg">
<path d="M10.25 8.75H13.25C13.4489 8.75 13.6397 8.82902 13.7803 8.96967C13.921 9.11032 14 9.30109 14 9.5C14 9.69891 13.921 9.88968 13.7803 10.0303C13.6397 10.171 13.4489 10.25 13.25 10.25H9.5C9.30109 10.25 9.11032 10.171 8.96967 10.0303C8.82902 9.88968 8.75 9.69891 8.75 9.5V5C8.75 4.80109 8.82902 4.61032 8.96967 4.46967C9.11032 4.32902 9.30109 4.25 9.5 4.25C9.69891 4.25 9.88968 4.32902 10.0303 4.46967C10.171 4.61032 10.25 4.80109 10.25 5V8.75ZM9.5 17C5.35775 17 2 13.6423 2 9.5C2 5.35775 5.35775 2 9.5 2C13.6423 2 17 5.35775 17 9.5C17 13.6423 13.6423 17 9.5 17ZM9.5 15.5C11.0913 15.5 12.6174 14.8679 13.7426 13.7426C14.8679 12.6174 15.5 11.0913 15.5 9.5C15.5 7.9087 14.8679 6.38258 13.7426 5.25736C12.6174 4.13214 11.0913 3.5 9.5 3.5C7.9087 3.5 6.38258 4.13214 5.25736 5.25736C4.13214 6.38258 3.5 7.9087 3.5 9.5C3.5 11.0913 4.13214 12.6174 5.25736 13.7426C6.38258 14.8679 7.9087 15.5 9.5 15.5Z" fill="#E7742E"/>
</svg>
