<svg width="22" height="22" viewBox="0 0 22 22" fill="none" xmlns="http://www.w3.org/2000/svg">
<path d="M11 4C14.864 4 18 7.136 18 11C18 14.864 14.864 18 11 18C7.136 18 4 14.864 4 11C4 7.136 7.136 4 11 4ZM11 5.4C7.906 5.4 5.4 7.906 5.4 11C5.4 14.094 7.906 16.6 11 16.6C14.094 16.6 16.6 14.094 16.6 11C16.6 7.906 14.094 5.4 11 5.4ZM11 7.5C12.274 7.5 13.3891 8.1811 14.0016 9.1996L12.8018 9.9199C12.613 9.60507 12.3449 9.34524 12.0244 9.16631C11.7038 8.98739 11.342 8.89562 10.9749 8.90016C10.6078 8.9047 10.2483 9.00539 9.93229 9.19219C9.61626 9.379 9.35472 9.64538 9.17375 9.96479C8.99278 10.2842 8.8987 10.6455 8.9009 11.0126C8.90309 11.3797 9.00149 11.7398 9.18626 12.057C9.37104 12.3742 9.63575 12.6374 9.95399 12.8205C10.2722 13.0035 10.6329 13.0998 11 13.1C11.3627 13.1002 11.7193 13.0065 12.0349 12.8278C12.3506 12.6492 12.6146 12.3918 12.8011 12.0808L14.0016 12.8004C13.6082 13.4574 13.0102 13.9673 12.2991 14.2517C11.5881 14.5362 10.8035 14.5796 10.0654 14.3752C9.32741 14.1708 8.6768 13.73 8.2134 13.1203C7.74999 12.5107 7.49938 11.7658 7.5 11C7.5 9.068 9.068 7.5 11 7.5Z" fill="#E7742E"/>
</svg>
