<svg width="20" height="20" viewBox="0 0 20 20" fill="none" xmlns="http://www.w3.org/2000/svg">
<path d="M9.95 2C7.21562 2 5 4.25827 5 7.05553C5 11.8922 9.95 18.2 9.95 18.2C9.95 18.2 14.9 11.8912 14.9 7.05553C14.9 4.25929 12.6844 2 9.95 2ZM9.95 9.85279C9.24108 9.85279 8.56119 9.5646 8.0599 9.0516C7.55862 8.5386 7.277 7.84282 7.277 7.11733C7.277 6.39185 7.55862 5.69607 8.0599 5.18307C8.56119 4.67008 9.24108 4.38188 9.95 4.38188C10.6589 4.38188 11.3388 4.67008 11.8401 5.18307C12.3414 5.69607 12.623 6.39185 12.623 7.11733C12.623 7.84282 12.3414 8.5386 11.8401 9.0516C11.3388 9.5646 10.6589 9.85279 9.95 9.85279Z" fill="#E7742E"/>
</svg>
